<?xml version="1.0" encoding="UTF-8"?><svg xmlns="http://www.w3.org/2000/svg" xmlns:xlink="http://www.w3.org/1999/xlink" fill-opacity="1" color-rendering="auto" color-interpolation="auto" text-rendering="auto" stroke="black" stroke-linecap="square" width="593" stroke-miterlimit="10" shape-rendering="auto" stroke-opacity="1" fill="black" stroke-dasharray="none" font-weight="normal" stroke-width="1" height="313" font-family="'Dialog'" font-style="normal" stroke-linejoin="miter" font-size="12px" stroke-dashoffset="0" image-rendering="auto">
  <!--Generated by ySVG 2.5-->
  <defs id="genericDefs"/>
  <g>
    <defs id="defs1">
      <clipPath clipPathUnits="userSpaceOnUse" id="clipPath1">
        <path d="M0 0 L593 0 L593 313 L0 313 L0 0 Z"/>
      </clipPath>
      <clipPath clipPathUnits="userSpaceOnUse" id="clipPath2">
        <path d="M158 43 L751 43 L751 356 L158 356 L158 43 Z"/>
      </clipPath>
      <clipPath clipPathUnits="userSpaceOnUse" id="clipPath3">
        <path d="M0 0 L0 53 L100 53 L100 0 Z"/>
      </clipPath>
      <clipPath clipPathUnits="userSpaceOnUse" id="clipPath4">
        <path d="M0 0 L0 53 L50 53 L50 0 Z"/>
      </clipPath>
      <clipPath clipPathUnits="userSpaceOnUse" id="clipPath5">
        <path d="M0 0 L0 53 L37 53 L37 0 Z"/>
      </clipPath>
      <clipPath clipPathUnits="userSpaceOnUse" id="clipPath6">
        <path d="M0 0 L0 53 L78 53 L78 0 Z"/>
      </clipPath>
      <clipPath clipPathUnits="userSpaceOnUse" id="clipPath7">
        <path d="M0 0 L0 15 L91 15 L91 0 Z"/>
      </clipPath>
      <clipPath clipPathUnits="userSpaceOnUse" id="clipPath8">
        <path d="M0 0 L0 53 L35 53 L35 0 Z"/>
      </clipPath>
    </defs>
    <g fill="white" text-rendering="geometricPrecision" shape-rendering="geometricPrecision" transform="translate(-158,-43)" stroke="white">
      <rect x="158" width="593" height="313" y="43" clip-path="url(#clipPath2)" stroke="none"/>
    </g>
    <g stroke-linecap="butt" transform="matrix(1,0,0,1,-158,-43) translate(611,112)" text-rendering="geometricPrecision" font-family="sans-serif" shape-rendering="geometricPrecision" font-weight="bold" stroke-miterlimit="1.45">
      <text x="0" xml:space="preserve" y="12" clip-path="url(#clipPath3)" stroke="none">MyApplication</text>
      <line clip-path="url(#clipPath3)" fill="none" x1="99" x2="99" y1="18" y2="19" stroke="white"/>
      <line clip-path="url(#clipPath3)" fill="none" x1="0" x2="99" y1="19" y2="19" stroke="white"/>
      <line clip-path="url(#clipPath3)" fill="none" x1="0" x2="99" y1="18" y2="18" stroke="rgb(64,64,64)"/>
      <line clip-path="url(#clipPath3)" fill="none" x1="0" x2="0" y1="18" y2="19" stroke="rgb(64,64,64)"/>
      <text x="0" xml:space="preserve" y="35" clip-path="url(#clipPath3)" font-weight="normal" stroke="none"> </text>
      <text x="0" y="50" clip-path="url(#clipPath3)" font-style="italic" stroke="none" font-weight="normal" xml:space="preserve">text</text>
      <text x="25" xml:space="preserve" y="50" clip-path="url(#clipPath3)" font-weight="normal" stroke="none">()</text>
    </g>
    <g text-rendering="geometricPrecision" stroke-miterlimit="1.45" stroke-width="2" shape-rendering="geometricPrecision" transform="matrix(1,0,0,1,-158,-43)" stroke-linecap="butt">
      <rect fill="none" x="606" width="110" height="74" y="101.5" clip-path="url(#clipPath2)"/>
    </g>
    <g text-rendering="geometricPrecision" stroke-miterlimit="1.45" shape-rendering="geometricPrecision" font-family="sans-serif" transform="matrix(1,0,0,1,-158,-43)" stroke-linecap="butt">
      <text x="452.5928" xml:space="preserve" y="183.7324" clip-path="url(#clipPath2)" stroke="none"> </text>
      <text x="403.0049" xml:space="preserve" y="197.7012" clip-path="url(#clipPath2)" stroke="none">                           </text>
      <text x="431.6133" xml:space="preserve" y="211.6699" clip-path="url(#clipPath2)" stroke="none">            </text>
      <text x="431.6133" xml:space="preserve" y="225.6387" clip-path="url(#clipPath2)" stroke="none">            </text>
      <text x="431.6133" xml:space="preserve" y="239.6074" clip-path="url(#clipPath2)" stroke="none">            </text>
      <text x="431.6133" xml:space="preserve" y="253.5762" clip-path="url(#clipPath2)" stroke="none">            </text>
      <rect x="173" y="88" clip-path="url(#clipPath2)" fill="none" width="563" rx="4" ry="4" height="253" stroke-width="2"/>
    </g>
    <g stroke-linecap="butt" transform="matrix(1,0,0,1,-158,-43) translate(373,112)" text-rendering="geometricPrecision" font-family="sans-serif" shape-rendering="geometricPrecision" font-weight="bold" stroke-miterlimit="1.45">
      <text x="0" xml:space="preserve" y="12" clip-path="url(#clipPath4)" stroke="none">Screen</text>
      <line clip-path="url(#clipPath4)" fill="none" x1="49" x2="49" y1="18" y2="19" stroke="white"/>
      <line clip-path="url(#clipPath4)" fill="none" x1="0" x2="49" y1="19" y2="19" stroke="white"/>
      <line clip-path="url(#clipPath4)" fill="none" x1="0" x2="49" y1="18" y2="18" stroke="rgb(64,64,64)"/>
      <line clip-path="url(#clipPath4)" fill="none" x1="0" x2="0" y1="18" y2="19" stroke="rgb(64,64,64)"/>
      <text x="0" xml:space="preserve" y="35" clip-path="url(#clipPath4)" font-weight="normal" stroke="none"> </text>
      <text x="0" y="50" clip-path="url(#clipPath4)" font-style="italic" stroke="none" font-weight="normal" xml:space="preserve">print</text>
      <text x="29" xml:space="preserve" y="50" clip-path="url(#clipPath4)" font-weight="normal" stroke="none">()</text>
    </g>
    <g text-rendering="geometricPrecision" stroke-miterlimit="1.45" shape-rendering="geometricPrecision" transform="matrix(1,0,0,1,-158,-43)" stroke-linecap="butt">
      <rect fill="none" x="343" width="110" height="74" y="101.5" clip-path="url(#clipPath2)"/>
    </g>
    <g stroke-linecap="butt" transform="matrix(1,0,0,1,-158,-43) translate(227,112)" text-rendering="geometricPrecision" font-family="sans-serif" shape-rendering="geometricPrecision" font-weight="bold" stroke-miterlimit="1.45">
      <text x="0" xml:space="preserve" y="12" clip-path="url(#clipPath5)" stroke="none">Start</text>
      <line clip-path="url(#clipPath5)" fill="none" x1="36" x2="36" y1="18" y2="19" stroke="white"/>
      <line clip-path="url(#clipPath5)" fill="none" x1="0" x2="36" y1="19" y2="19" stroke="white"/>
      <line clip-path="url(#clipPath5)" fill="none" x1="0" x2="36" y1="18" y2="18" stroke="rgb(64,64,64)"/>
      <line clip-path="url(#clipPath5)" fill="none" x1="0" x2="0" y1="18" y2="19" stroke="rgb(64,64,64)"/>
      <text x="0" xml:space="preserve" y="35" clip-path="url(#clipPath5)" font-weight="normal" stroke="none"> </text>
      <text x="0" y="50" clip-path="url(#clipPath5)" font-style="italic" stroke="none" font-weight="normal" xml:space="preserve">init</text>
      <text x="19" xml:space="preserve" y="50" clip-path="url(#clipPath5)" font-weight="normal" stroke="none">()</text>
    </g>
    <g text-rendering="geometricPrecision" stroke-miterlimit="1.45" shape-rendering="geometricPrecision" transform="matrix(1,0,0,1,-158,-43)" stroke-linecap="butt">
      <rect fill="none" x="191" width="110" height="74" y="101.5" clip-path="url(#clipPath2)"/>
    </g>
    <g stroke-linecap="butt" transform="matrix(1,0,0,1,-158,-43) translate(622,268)" text-rendering="geometricPrecision" font-family="sans-serif" shape-rendering="geometricPrecision" font-weight="bold" stroke-miterlimit="1.45">
      <text x="0" xml:space="preserve" y="12" clip-path="url(#clipPath6)" stroke="none">Main</text>
      <line clip-path="url(#clipPath6)" fill="none" x1="77" x2="77" y1="18" y2="19" stroke="white"/>
      <line clip-path="url(#clipPath6)" fill="none" x1="0" x2="77" y1="19" y2="19" stroke="white"/>
      <line clip-path="url(#clipPath6)" fill="none" x1="0" x2="77" y1="18" y2="18" stroke="rgb(64,64,64)"/>
      <line clip-path="url(#clipPath6)" fill="none" x1="0" x2="0" y1="18" y2="19" stroke="rgb(64,64,64)"/>
      <text x="0" xml:space="preserve" y="35" clip-path="url(#clipPath6)" font-weight="normal" stroke="none"> </text>
      <text x="0" y="50" clip-path="url(#clipPath6)" font-style="italic" stroke="none" font-weight="normal" xml:space="preserve">main</text>
      <text x="30" xml:space="preserve" y="50" clip-path="url(#clipPath6)" font-weight="normal" stroke="none">(args[])</text>
    </g>
    <g text-rendering="geometricPrecision" stroke-miterlimit="1.45" stroke-width="2" shape-rendering="geometricPrecision" transform="matrix(1,0,0,1,-158,-43)" stroke-linecap="butt">
      <rect fill="none" x="606" width="110" height="74" y="258" clip-path="url(#clipPath2)"/>
    </g>
    <g stroke-linecap="butt" transform="matrix(1,0,0,1,-158,-43) translate(403,65)" text-rendering="geometricPrecision" font-family="sans-serif" shape-rendering="geometricPrecision" font-weight="bold" stroke-miterlimit="1.45">
      <text x="0" xml:space="preserve" y="12" clip-path="url(#clipPath7)" stroke="none">Mi Aplicación</text>
    </g>
    <g stroke-linecap="butt" transform="matrix(1,0,0,1,-158,-43) translate(380,216)" text-rendering="geometricPrecision" font-family="sans-serif" shape-rendering="geometricPrecision" font-weight="bold" stroke-miterlimit="1.45">
      <text x="0" xml:space="preserve" y="12" clip-path="url(#clipPath8)" stroke="none">Text</text>
      <line clip-path="url(#clipPath8)" fill="none" x1="34" x2="34" y1="18" y2="19" stroke="white"/>
      <line clip-path="url(#clipPath8)" fill="none" x1="0" x2="34" y1="19" y2="19" stroke="white"/>
      <line clip-path="url(#clipPath8)" fill="none" x1="0" x2="34" y1="18" y2="18" stroke="rgb(64,64,64)"/>
      <line clip-path="url(#clipPath8)" fill="none" x1="0" x2="0" y1="18" y2="19" stroke="rgb(64,64,64)"/>
      <text x="0" xml:space="preserve" y="35" clip-path="url(#clipPath8)" font-weight="normal" stroke="none"> </text>
      <text x="0" y="50" clip-path="url(#clipPath8)" font-style="italic" stroke="none" font-weight="normal" xml:space="preserve">text</text>
      <text x="25" xml:space="preserve" y="50" clip-path="url(#clipPath8)" font-weight="normal" stroke="none">()</text>
    </g>
    <g text-rendering="geometricPrecision" stroke-miterlimit="1.45" shape-rendering="geometricPrecision" transform="matrix(1,0,0,1,-158,-43)" stroke-linecap="butt">
      <rect fill="none" x="343" width="110" height="74" y="205.5" clip-path="url(#clipPath2)"/>
      <path fill="none" stroke-dasharray="6,2" d="M453 138.5 L598 138.5" clip-path="url(#clipPath2)"/>
      <path stroke-dasharray="6,2" d="M606 138.5 L594 133.5 L597 138.5 L594 143.5 Z" clip-path="url(#clipPath2)" stroke="none"/>
      <path fill="none" d="M301 138.5 L335 138.5" clip-path="url(#clipPath2)"/>
      <path d="M343 138.5 L331 133.5 L334 138.5 L331 143.5 Z" clip-path="url(#clipPath2)" stroke="none"/>
      <path fill="none" d="M606 295 L246 295 L246 183.5" clip-path="url(#clipPath2)"/>
      <path d="M246 175.5 L241 187.5 L246 184.5 L251 187.5 Z" clip-path="url(#clipPath2)" stroke="none"/>
      <path fill="none" d="M667 175.5254 L667 237 L467.9973 237" clip-path="url(#clipPath2)"/>
      <path fill="white" d="M452.9973 237 L468.9973 243 L468.9973 231 Z" clip-path="url(#clipPath2)" stroke="none"/>
      <path fill="none" d="M452.9973 237 L468.9973 243 L468.9973 231 Z" clip-path="url(#clipPath2)"/>
      <path fill="none" d="M398 175.5 L398 197.5" clip-path="url(#clipPath2)"/>
      <path d="M398 205.5 L403 193.5 L398 196.5 L393 193.5 Z" clip-path="url(#clipPath2)" stroke="none"/>
    </g>
  </g>
</svg>
