<?xml version="1.0" encoding="UTF-8"?><svg xmlns="http://www.w3.org/2000/svg" xmlns:xlink="http://www.w3.org/1999/xlink" fill-opacity="1" color-rendering="auto" color-interpolation="auto" text-rendering="auto" stroke="black" stroke-linecap="square" width="308" stroke-miterlimit="10" shape-rendering="auto" stroke-opacity="1" fill="black" stroke-dasharray="none" font-weight="normal" stroke-width="1" height="370" font-family="'Dialog'" font-style="normal" stroke-linejoin="miter" font-size="12px" stroke-dashoffset="0" image-rendering="auto">
  <!--Generated by ySVG 2.5-->
  <defs id="genericDefs"/>
  <g>
    <defs id="defs1">
      <clipPath clipPathUnits="userSpaceOnUse" id="clipPath1">
        <path d="M0 0 L308 0 L308 370 L0 370 L0 0 Z"/>
      </clipPath>
      <clipPath clipPathUnits="userSpaceOnUse" id="clipPath2">
        <path d="M402 115 L710 115 L710 485 L402 485 L402 115 Z"/>
      </clipPath>
      <clipPath clipPathUnits="userSpaceOnUse" id="clipPath3">
        <path d="M0 0 L0 53 L65 53 L65 0 Z"/>
      </clipPath>
      <clipPath clipPathUnits="userSpaceOnUse" id="clipPath4">
        <path d="M0 0 L0 53 L89 53 L89 0 Z"/>
      </clipPath>
      <clipPath clipPathUnits="userSpaceOnUse" id="clipPath5">
        <path d="M0 0 L0 53 L102 53 L102 0 Z"/>
      </clipPath>
      <clipPath clipPathUnits="userSpaceOnUse" id="clipPath6">
        <path d="M0 0 L0 53 L71 53 L71 0 Z"/>
      </clipPath>
      <clipPath clipPathUnits="userSpaceOnUse" id="clipPath7">
        <path d="M0 0 L0 53 L26 53 L26 0 Z"/>
      </clipPath>
    </defs>
    <g fill="white" text-rendering="geometricPrecision" shape-rendering="geometricPrecision" transform="translate(-402,-115)" stroke="white">
      <rect x="402" width="308" height="370" y="115" clip-path="url(#clipPath2)" stroke="none"/>
    </g>
    <g stroke-linecap="butt" transform="matrix(1,0,0,1,-402,-115) translate(521,140)" text-rendering="geometricPrecision" font-family="sans-serif" shape-rendering="geometricPrecision" font-weight="bold" stroke-miterlimit="1.45">
      <text x="0" xml:space="preserve" y="12" clip-path="url(#clipPath3)" stroke="none">Copiador</text>
      <line clip-path="url(#clipPath3)" fill="none" x1="64" x2="64" y1="18" y2="19" stroke="white"/>
      <line clip-path="url(#clipPath3)" fill="none" x1="0" x2="64" y1="19" y2="19" stroke="white"/>
      <line clip-path="url(#clipPath3)" fill="none" x1="0" x2="64" y1="18" y2="18" stroke="rgb(64,64,64)"/>
      <line clip-path="url(#clipPath3)" fill="none" x1="0" x2="0" y1="18" y2="19" stroke="rgb(64,64,64)"/>
      <text x="0" xml:space="preserve" y="35" clip-path="url(#clipPath3)" font-weight="normal" stroke="none"> </text>
      <text x="0" y="50" clip-path="url(#clipPath3)" font-style="italic" stroke="none" font-weight="normal" xml:space="preserve">copiar</text>
      <text x="39" xml:space="preserve" y="50" clip-path="url(#clipPath3)" font-weight="normal" stroke="none">()</text>
    </g>
    <g text-rendering="geometricPrecision" stroke-miterlimit="1.45" shape-rendering="geometricPrecision" transform="matrix(1,0,0,1,-402,-115)" stroke-linecap="butt">
      <rect fill="none" x="499" width="110" height="74" y="130" clip-path="url(#clipPath2)"/>
    </g>
    <g stroke-linecap="butt" transform="matrix(1,0,0,1,-402,-115) translate(427,273)" text-rendering="geometricPrecision" font-family="sans-serif" shape-rendering="geometricPrecision" font-weight="bold" stroke-miterlimit="1.45">
      <text x="0" xml:space="preserve" y="12" clip-path="url(#clipPath4)" stroke="none">InputStream</text>
      <line clip-path="url(#clipPath4)" fill="none" x1="88" x2="88" y1="18" y2="19" stroke="white"/>
      <line clip-path="url(#clipPath4)" fill="none" x1="0" x2="88" y1="19" y2="19" stroke="white"/>
      <line clip-path="url(#clipPath4)" fill="none" x1="0" x2="88" y1="18" y2="18" stroke="rgb(64,64,64)"/>
      <line clip-path="url(#clipPath4)" fill="none" x1="0" x2="0" y1="18" y2="19" stroke="rgb(64,64,64)"/>
      <text x="0" xml:space="preserve" y="35" clip-path="url(#clipPath4)" font-weight="normal" stroke="none"> </text>
      <text x="0" y="50" clip-path="url(#clipPath4)" font-style="italic" stroke="none" font-weight="normal" xml:space="preserve">...</text>
    </g>
    <g text-rendering="geometricPrecision" stroke-miterlimit="1.45" shape-rendering="geometricPrecision" transform="matrix(1,0,0,1,-402,-115)" stroke-linecap="butt">
      <rect fill="none" x="417" width="110" height="74" y="263" clip-path="url(#clipPath2)"/>
    </g>
    <g stroke-linecap="butt" transform="matrix(1,0,0,1,-402,-115) translate(589,273)" text-rendering="geometricPrecision" font-family="sans-serif" shape-rendering="geometricPrecision" font-weight="bold" stroke-miterlimit="1.45">
      <text x="0" xml:space="preserve" y="12" clip-path="url(#clipPath5)" stroke="none">OutputStream</text>
      <line clip-path="url(#clipPath5)" fill="none" x1="101" x2="101" y1="18" y2="19" stroke="white"/>
      <line clip-path="url(#clipPath5)" fill="none" x1="0" x2="101" y1="19" y2="19" stroke="white"/>
      <line clip-path="url(#clipPath5)" fill="none" x1="0" x2="101" y1="18" y2="18" stroke="rgb(64,64,64)"/>
      <line clip-path="url(#clipPath5)" fill="none" x1="0" x2="0" y1="18" y2="19" stroke="rgb(64,64,64)"/>
      <text x="0" xml:space="preserve" y="35" clip-path="url(#clipPath5)" font-weight="normal" stroke="none"> </text>
      <text x="0" y="50" clip-path="url(#clipPath5)" font-style="italic" stroke="none" font-weight="normal" xml:space="preserve">...</text>
    </g>
    <g text-rendering="geometricPrecision" stroke-miterlimit="1.45" shape-rendering="geometricPrecision" transform="matrix(1,0,0,1,-402,-115)" stroke-linecap="butt">
      <rect fill="none" x="585" width="110" height="74" y="263" clip-path="url(#clipPath2)"/>
    </g>
    <g stroke-linecap="butt" transform="matrix(1,0,0,1,-402,-115) translate(436,406)" text-rendering="geometricPrecision" font-family="sans-serif" shape-rendering="geometricPrecision" font-weight="bold" stroke-miterlimit="1.45">
      <text x="0" xml:space="preserve" y="12" clip-path="url(#clipPath6)" stroke="none">System.in</text>
      <line clip-path="url(#clipPath6)" fill="none" x1="70" x2="70" y1="18" y2="19" stroke="white"/>
      <line clip-path="url(#clipPath6)" fill="none" x1="0" x2="70" y1="19" y2="19" stroke="white"/>
      <line clip-path="url(#clipPath6)" fill="none" x1="0" x2="70" y1="18" y2="18" stroke="rgb(64,64,64)"/>
      <line clip-path="url(#clipPath6)" fill="none" x1="0" x2="0" y1="18" y2="19" stroke="rgb(64,64,64)"/>
      <text x="0" xml:space="preserve" y="35" clip-path="url(#clipPath6)" font-weight="normal" stroke="none"> </text>
      <text x="0" y="50" clip-path="url(#clipPath6)" font-style="italic" stroke="none" font-weight="normal" xml:space="preserve">...</text>
    </g>
    <g text-rendering="geometricPrecision" stroke-miterlimit="1.45" shape-rendering="geometricPrecision" transform="matrix(1,0,0,1,-402,-115)" stroke-linecap="butt">
      <rect fill="none" x="417" width="110" height="74" y="396" clip-path="url(#clipPath2)"/>
    </g>
    <g stroke-linecap="butt" transform="matrix(1,0,0,1,-402,-115) translate(627,406)" text-rendering="geometricPrecision" font-family="sans-serif" shape-rendering="geometricPrecision" font-weight="bold" stroke-miterlimit="1.45">
      <text x="0" xml:space="preserve" y="12" clip-path="url(#clipPath7)" stroke="none">File</text>
      <line clip-path="url(#clipPath7)" fill="none" x1="25" x2="25" y1="18" y2="19" stroke="white"/>
      <line clip-path="url(#clipPath7)" fill="none" x1="0" x2="25" y1="19" y2="19" stroke="white"/>
      <line clip-path="url(#clipPath7)" fill="none" x1="0" x2="25" y1="18" y2="18" stroke="rgb(64,64,64)"/>
      <line clip-path="url(#clipPath7)" fill="none" x1="0" x2="0" y1="18" y2="19" stroke="rgb(64,64,64)"/>
      <text x="0" xml:space="preserve" y="35" clip-path="url(#clipPath7)" font-weight="normal" stroke="none"> </text>
      <text x="0" y="50" clip-path="url(#clipPath7)" font-style="italic" stroke="none" font-weight="normal" xml:space="preserve">...</text>
    </g>
    <g text-rendering="geometricPrecision" stroke-miterlimit="1.45" shape-rendering="geometricPrecision" transform="matrix(1,0,0,1,-402,-115)" stroke-linecap="butt">
      <rect fill="none" x="585" width="110" height="74" y="396" clip-path="url(#clipPath2)"/>
    </g>
    <g stroke-linecap="butt" transform="matrix(1,0,0,1,-402,-115)" fill="rgb(204,204,204)" text-rendering="geometricPrecision" shape-rendering="geometricPrecision" stroke="rgb(204,204,204)" stroke-miterlimit="1.45">
      <path fill="none" d="M531.188 204 L499.0105 256.1902" clip-path="url(#clipPath2)"/>
      <path d="M494.812 263 L505.3659 255.4094 L499.5353 255.339 L496.8537 250.1613 Z" clip-path="url(#clipPath2)" stroke="none"/>
      <path fill="none" d="M577.9248 204 L611.7313 256.2821" clip-path="url(#clipPath2)"/>
      <path d="M616.0752 263 L613.758 250.2082 L611.1883 255.4424 L605.3606 255.6381 Z" clip-path="url(#clipPath2)" stroke="none"/>
      <path fill="none" d="M472 396 L472 345" clip-path="url(#clipPath2)"/>
      <path d="M472 337 L467 349 L472 346 L477 349 Z" clip-path="url(#clipPath2)" stroke="none"/>
      <path fill="none" d="M640 396 L640 345" clip-path="url(#clipPath2)"/>
      <path d="M640 337 L635 349 L640 346 L645 349 Z" clip-path="url(#clipPath2)" stroke="none"/>
    </g>
  </g>
</svg>
