<?xml version="1.0" encoding="UTF-8"?><svg xmlns="http://www.w3.org/2000/svg" xmlns:xlink="http://www.w3.org/1999/xlink" fill-opacity="1" color-rendering="auto" color-interpolation="auto" text-rendering="auto" stroke="black" stroke-linecap="square" width="313" stroke-miterlimit="10" shape-rendering="auto" stroke-opacity="1" fill="black" stroke-dasharray="none" font-weight="normal" stroke-width="1" height="266" font-family="'Dialog'" font-style="normal" stroke-linejoin="miter" font-size="12px" stroke-dashoffset="0" image-rendering="auto">
  <!--Generated by ySVG 2.5-->
  <defs id="genericDefs"/>
  <g>
    <defs id="defs1">
      <clipPath clipPathUnits="userSpaceOnUse" id="clipPath1">
        <path d="M0 0 L313 0 L313 266 L0 266 L0 0 Z"/>
      </clipPath>
      <clipPath clipPathUnits="userSpaceOnUse" id="clipPath2">
        <path d="M461 67 L774 67 L774 333 L461 333 L461 67 Z"/>
      </clipPath>
      <clipPath clipPathUnits="userSpaceOnUse" id="clipPath3">
        <path d="M0 0 L0 53 L65 53 L65 0 Z"/>
      </clipPath>
      <clipPath clipPathUnits="userSpaceOnUse" id="clipPath4">
        <path d="M0 0 L0 53 L71 53 L71 0 Z"/>
      </clipPath>
      <clipPath clipPathUnits="userSpaceOnUse" id="clipPath5">
        <path d="M0 0 L0 53 L26 53 L26 0 Z"/>
      </clipPath>
    </defs>
    <g fill="white" text-rendering="geometricPrecision" shape-rendering="geometricPrecision" transform="translate(-461,-67)" stroke="white">
      <rect x="461" width="313" height="266" y="67" clip-path="url(#clipPath2)" stroke="none"/>
    </g>
    <g stroke-linecap="butt" transform="matrix(1,0,0,1,-461,-67) translate(582,92)" text-rendering="geometricPrecision" font-family="sans-serif" shape-rendering="geometricPrecision" font-weight="bold" stroke-miterlimit="1.45">
      <text x="0" xml:space="preserve" y="12" clip-path="url(#clipPath3)" stroke="none">Copiador</text>
      <line clip-path="url(#clipPath3)" fill="none" x1="64" x2="64" y1="18" y2="19" stroke="white"/>
      <line clip-path="url(#clipPath3)" fill="none" x1="0" x2="64" y1="19" y2="19" stroke="white"/>
      <line clip-path="url(#clipPath3)" fill="none" x1="0" x2="64" y1="18" y2="18" stroke="rgb(64,64,64)"/>
      <line clip-path="url(#clipPath3)" fill="none" x1="0" x2="0" y1="18" y2="19" stroke="rgb(64,64,64)"/>
      <text x="0" xml:space="preserve" y="35" clip-path="url(#clipPath3)" font-weight="normal" stroke="none"> </text>
      <text x="0" y="50" clip-path="url(#clipPath3)" font-style="italic" stroke="none" font-weight="normal" xml:space="preserve">copiar</text>
      <text x="39" xml:space="preserve" y="50" clip-path="url(#clipPath3)" font-weight="normal" stroke="none">()</text>
    </g>
    <g text-rendering="geometricPrecision" stroke-miterlimit="1.45" shape-rendering="geometricPrecision" transform="matrix(1,0,0,1,-461,-67)" stroke-linecap="butt">
      <rect fill="none" x="559.5" width="110" height="74" y="82" clip-path="url(#clipPath2)"/>
    </g>
    <g stroke-linecap="butt" transform="matrix(1,0,0,1,-461,-67) translate(495,254)" text-rendering="geometricPrecision" font-family="sans-serif" shape-rendering="geometricPrecision" font-weight="bold" stroke-miterlimit="1.45">
      <text x="0" xml:space="preserve" y="12" clip-path="url(#clipPath4)" stroke="none">System.in</text>
      <line clip-path="url(#clipPath4)" fill="none" x1="70" x2="70" y1="18" y2="19" stroke="white"/>
      <line clip-path="url(#clipPath4)" fill="none" x1="0" x2="70" y1="19" y2="19" stroke="white"/>
      <line clip-path="url(#clipPath4)" fill="none" x1="0" x2="70" y1="18" y2="18" stroke="rgb(64,64,64)"/>
      <line clip-path="url(#clipPath4)" fill="none" x1="0" x2="0" y1="18" y2="19" stroke="rgb(64,64,64)"/>
      <text x="0" xml:space="preserve" y="35" clip-path="url(#clipPath4)" font-weight="normal" stroke="none"> </text>
      <text x="0" y="50" clip-path="url(#clipPath4)" font-style="italic" stroke="none" font-weight="normal" xml:space="preserve">...</text>
    </g>
    <g text-rendering="geometricPrecision" stroke-miterlimit="1.45" shape-rendering="geometricPrecision" transform="matrix(1,0,0,1,-461,-67)" stroke-linecap="butt">
      <rect fill="none" x="476" width="110" height="74" y="244" clip-path="url(#clipPath2)"/>
    </g>
    <g stroke-linecap="butt" transform="matrix(1,0,0,1,-461,-67) translate(691,254)" text-rendering="geometricPrecision" font-family="sans-serif" shape-rendering="geometricPrecision" font-weight="bold" stroke-miterlimit="1.45">
      <text x="0" xml:space="preserve" y="12" clip-path="url(#clipPath5)" stroke="none">File</text>
      <line clip-path="url(#clipPath5)" fill="none" x1="25" x2="25" y1="18" y2="19" stroke="white"/>
      <line clip-path="url(#clipPath5)" fill="none" x1="0" x2="25" y1="19" y2="19" stroke="white"/>
      <line clip-path="url(#clipPath5)" fill="none" x1="0" x2="25" y1="18" y2="18" stroke="rgb(64,64,64)"/>
      <line clip-path="url(#clipPath5)" fill="none" x1="0" x2="0" y1="18" y2="19" stroke="rgb(64,64,64)"/>
      <text x="0" xml:space="preserve" y="35" clip-path="url(#clipPath5)" font-weight="normal" stroke="none"> </text>
      <text x="0" y="50" clip-path="url(#clipPath5)" font-style="italic" stroke="none" font-weight="normal" xml:space="preserve">...</text>
    </g>
    <g text-rendering="geometricPrecision" stroke-miterlimit="1.45" shape-rendering="geometricPrecision" transform="matrix(1,0,0,1,-461,-67)" stroke-linecap="butt">
      <rect fill="none" x="649" width="110" height="74" y="244" clip-path="url(#clipPath2)"/>
    </g>
    <g stroke-linecap="butt" transform="matrix(1,0,0,1,-461,-67)" fill="rgb(204,204,204)" text-rendering="geometricPrecision" shape-rendering="geometricPrecision" stroke="rgb(204,204,204)" stroke-miterlimit="1.45">
      <path fill="none" d="M595.429 156 L553.7362 236.889" clip-path="url(#clipPath2)"/>
      <path d="M550.071 244 L560.0132 235.6243 L554.1943 236.0002 L551.1245 231.0428 Z" clip-path="url(#clipPath2)" stroke="none"/>
      <path fill="none" d="M634.9413 156 L679.69 236.9976" clip-path="url(#clipPath2)"/>
      <path d="M683.5587 244 L682.1322 231.0785 L679.2064 236.1223 L673.3792 235.9143 Z" clip-path="url(#clipPath2)" stroke="none"/>
    </g>
  </g>
</svg>
