<?xml version="1.0" encoding="UTF-8"?><svg xmlns="http://www.w3.org/2000/svg" xmlns:xlink="http://www.w3.org/1999/xlink" fill-opacity="1" color-rendering="auto" color-interpolation="auto" text-rendering="auto" stroke="black" stroke-linecap="square" width="593" stroke-miterlimit="10" shape-rendering="auto" stroke-opacity="1" fill="black" stroke-dasharray="none" font-weight="normal" stroke-width="1" height="258" font-family="'Dialog'" font-style="normal" stroke-linejoin="miter" font-size="12px" stroke-dashoffset="0" image-rendering="auto">
  <!--Generated by ySVG 2.5-->
  <defs id="genericDefs"/>
  <g>
    <defs id="defs1">
      <clipPath clipPathUnits="userSpaceOnUse" id="clipPath1">
        <path d="M0 0 L593 0 L593 258 L0 258 L0 0 Z"/>
      </clipPath>
      <clipPath clipPathUnits="userSpaceOnUse" id="clipPath2">
        <path d="M86 -275 L679 -275 L679 -17 L86 -17 L86 -275 Z"/>
      </clipPath>
      <clipPath clipPathUnits="userSpaceOnUse" id="clipPath3">
        <path d="M0 0 L0 15 L91 15 L91 0 Z"/>
      </clipPath>
      <clipPath clipPathUnits="userSpaceOnUse" id="clipPath4">
        <path d="M0 0 L0 15 L36 15 L36 0 Z"/>
      </clipPath>
      <clipPath clipPathUnits="userSpaceOnUse" id="clipPath5">
        <path d="M0 0 L0 15 L154 15 L154 0 Z"/>
      </clipPath>
      <clipPath clipPathUnits="userSpaceOnUse" id="clipPath6">
        <path d="M0 0 L0 15 L162 15 L162 0 Z"/>
      </clipPath>
    </defs>
    <g fill="white" text-rendering="geometricPrecision" shape-rendering="geometricPrecision" transform="translate(-86,275)" stroke="white">
      <rect x="86" width="593" height="258" y="-275" clip-path="url(#clipPath2)" stroke="none"/>
    </g>
    <g stroke-linecap="butt" transform="matrix(1,0,0,1,-86,275) translate(337,-252)" text-rendering="geometricPrecision" font-family="sans-serif" shape-rendering="geometricPrecision" font-weight="bold" stroke-miterlimit="1.45">
      <text x="0" xml:space="preserve" y="12" clip-path="url(#clipPath3)" stroke="none">Mi Aplicación</text>
    </g>
    <g text-rendering="geometricPrecision" stroke-miterlimit="1.45" shape-rendering="geometricPrecision" font-family="sans-serif" transform="matrix(1,0,0,1,-86,275)" stroke-linecap="butt">
      <text x="596.5967" xml:space="preserve" y="-74.8457" clip-path="url(#clipPath2)" stroke="none">XFoo</text>
    </g>
    <g text-rendering="geometricPrecision" stroke-miterlimit="1.45" stroke-width="2" shape-rendering="geometricPrecision" transform="matrix(1,0,0,1,-86,275)" stroke-linecap="butt">
      <rect fill="none" x="572.5" width="78" height="49" y="-103.5" clip-path="url(#clipPath2)"/>
      <text x="600.707" y="-159.3457" clip-path="url(#clipPath2)" font-family="sans-serif" stroke="none" stroke-width="1" xml:space="preserve">Foo</text>
      <rect fill="none" x="572.5" width="78" height="49" y="-188" clip-path="url(#clipPath2)"/>
      <text x="500.2402" y="-159.3457" clip-path="url(#clipPath2)" font-family="sans-serif" stroke="none" stroke-width="1" xml:space="preserve">Bar</text>
      <rect fill="none" x="471.5" width="78" height="49" y="-188" clip-path="url(#clipPath2)"/>
      <text x="344.8818" y="-69.3457" clip-path="url(#clipPath2)" font-family="sans-serif" stroke="none" stroke-width="1" xml:space="preserve">FwBar</text>
      <rect x="324.5" y="-98" clip-path="url(#clipPath2)" fill="none" width="78" height="49" stroke-width="1"/>
      <text x="246.2383" y="-69.3457" clip-path="url(#clipPath2)" font-family="sans-serif" stroke="none" stroke-width="1" xml:space="preserve">FwXFoo</text>
      <rect x="230.5" y="-98" clip-path="url(#clipPath2)" fill="none" width="78" height="49" stroke-width="1"/>
      <text x="250.3486" y="-159.8457" clip-path="url(#clipPath2)" font-family="sans-serif" stroke="none" stroke-width="1" xml:space="preserve">FwFoo</text>
      <rect x="230.5" y="-188.5" clip-path="url(#clipPath2)" fill="none" width="78" height="49" stroke-width="1"/>
    </g>
    <g stroke-linecap="butt" transform="matrix(1,0,0,1,-86,275) translate(133,-171)" text-rendering="geometricPrecision" font-family="sans-serif" shape-rendering="geometricPrecision" font-weight="bold" stroke-miterlimit="1.45">
      <text x="0" xml:space="preserve" y="12" clip-path="url(#clipPath4)" stroke="none">Start</text>
    </g>
    <g text-rendering="geometricPrecision" stroke-miterlimit="1.45" shape-rendering="geometricPrecision" transform="matrix(1,0,0,1,-86,275)" stroke-linecap="butt">
      <rect fill="none" x="112.5" width="78" height="49" y="-188.5" clip-path="url(#clipPath2)"/>
    </g>
    <g stroke-linecap="butt" transform="matrix(1,0,0,1,-86,275) translate(192,-219)" text-rendering="geometricPrecision" font-family="sans-serif" shape-rendering="geometricPrecision" font-weight="bold" stroke-miterlimit="1.45">
      <text x="0" xml:space="preserve" y="12" clip-path="url(#clipPath5)" stroke="none">clases del Framework</text>
    </g>
    <g stroke-linecap="butt" transform="matrix(1,0,0,1,-86,275) translate(481,-219)" text-rendering="geometricPrecision" font-family="sans-serif" shape-rendering="geometricPrecision" font-weight="bold" stroke-miterlimit="1.45">
      <text x="0" xml:space="preserve" y="12" clip-path="url(#clipPath6)" stroke="none">clases de mi Aplicación</text>
    </g>
    <g text-rendering="geometricPrecision" stroke-miterlimit="1.45" shape-rendering="geometricPrecision" font-family="sans-serif" transform="matrix(1,0,0,1,-86,275)" stroke-linecap="butt">
      <text x="380.5928" xml:space="preserve" y="-160.2676" clip-path="url(#clipPath2)" stroke="none"> </text>
      <text x="331.0049" xml:space="preserve" y="-146.2988" clip-path="url(#clipPath2)" stroke="none">                           </text>
      <text x="359.6133" xml:space="preserve" y="-132.3301" clip-path="url(#clipPath2)" stroke="none">            </text>
      <text x="359.6133" xml:space="preserve" y="-118.3613" clip-path="url(#clipPath2)" stroke="none">            </text>
      <text x="359.6133" xml:space="preserve" y="-104.3926" clip-path="url(#clipPath2)" stroke="none">            </text>
      <text x="359.6133" xml:space="preserve" y="-90.4238" clip-path="url(#clipPath2)" stroke="none">            </text>
      <rect x="101" y="-227" clip-path="url(#clipPath2)" fill="none" width="563" rx="4" ry="4" height="195" stroke-width="2"/>
      <path fill="none" d="M611.5 -103.5 L611.5 -124" clip-path="url(#clipPath2)"/>
      <path fill="white" d="M611.5 -139 L605.5 -123 L617.5 -123 Z" clip-path="url(#clipPath2)" stroke="none"/>
      <path fill="none" d="M611.5 -139 L605.5 -123 L617.5 -123 Z" clip-path="url(#clipPath2)"/>
      <path fill="none" d="M549.5 -163.5 L564.5 -163.5" clip-path="url(#clipPath2)"/>
      <path d="M572.5 -163.5 L560.5 -168.5 L563.5 -163.5 L560.5 -158.5 Z" clip-path="url(#clipPath2)" stroke="none"/>
      <path fill="none" d="M510.5 -139 L510.5 -73.5 L417.5 -73.5" clip-path="url(#clipPath2)"/>
      <path fill="white" d="M402.5 -73.5 L418.5 -67.5 L418.5 -79.5 Z" clip-path="url(#clipPath2)" stroke="none"/>
      <path fill="none" d="M402.5 -73.5 L418.5 -67.5 L418.5 -79.5 Z" clip-path="url(#clipPath2)"/>
      <path fill="none" d="M269.5 -98 L269.5 -124.5" clip-path="url(#clipPath2)"/>
      <path fill="white" d="M269.5 -139.5 L263.5 -123.5 L275.5 -123.5 Z" clip-path="url(#clipPath2)" stroke="none"/>
      <path fill="none" d="M269.5 -139.5 L263.5 -123.5 L275.5 -123.5 Z" clip-path="url(#clipPath2)"/>
      <path fill="none" stroke-dasharray="6,2" d="M308.5 -163.9191 L463.5 -163.5975" clip-path="url(#clipPath2)"/>
      <path stroke-dasharray="6,2" d="M471.5 -163.5809 L459.5104 -168.6058 L462.5 -163.5996 L459.4897 -158.6058 Z" clip-path="url(#clipPath2)" stroke="none"/>
      <path fill="none" d="M190.5 -164 L222.5 -164" clip-path="url(#clipPath2)"/>
      <path d="M230.5 -164 L218.5 -169 L221.5 -164 L218.5 -159 Z" clip-path="url(#clipPath2)" stroke="none"/>
    </g>
  </g>
</svg>
