<?xml version="1.0" encoding="UTF-8"?><svg xmlns="http://www.w3.org/2000/svg" xmlns:xlink="http://www.w3.org/1999/xlink" fill-opacity="1" color-rendering="auto" color-interpolation="auto" text-rendering="auto" stroke="black" stroke-linecap="square" width="613" stroke-miterlimit="10" shape-rendering="auto" stroke-opacity="1" fill="black" stroke-dasharray="none" font-weight="normal" stroke-width="1" height="261" font-family="'Dialog'" font-style="normal" stroke-linejoin="miter" font-size="12px" stroke-dashoffset="0" image-rendering="auto">
  <!--Generated by ySVG 2.5-->
  <defs id="genericDefs"/>
  <g>
    <defs id="defs1">
      <clipPath clipPathUnits="userSpaceOnUse" id="clipPath1">
        <path d="M0 0 L613 0 L613 261 L0 261 L0 0 Z"/>
      </clipPath>
      <clipPath clipPathUnits="userSpaceOnUse" id="clipPath2">
        <path d="M58 -314 L671 -314 L671 -53 L58 -53 L58 -314 Z"/>
      </clipPath>
      <clipPath clipPathUnits="userSpaceOnUse" id="clipPath3">
        <path d="M0 0 L0 15 L143 15 L143 0 Z"/>
      </clipPath>
      <clipPath clipPathUnits="userSpaceOnUse" id="clipPath4">
        <path d="M0 0 L0 15 L162 15 L162 0 Z"/>
      </clipPath>
      <clipPath clipPathUnits="userSpaceOnUse" id="clipPath5">
        <path d="M0 0 L0 15 L34 15 L34 0 Z"/>
      </clipPath>
      <clipPath clipPathUnits="userSpaceOnUse" id="clipPath6">
        <path d="M0 0 L0 15 L91 15 L91 0 Z"/>
      </clipPath>
    </defs>
    <g fill="white" text-rendering="geometricPrecision" shape-rendering="geometricPrecision" transform="translate(-58,314)" stroke="white">
      <rect x="58" width="613" height="261" y="-314" clip-path="url(#clipPath2)" stroke="none"/>
    </g>
    <g text-rendering="geometricPrecision" stroke-miterlimit="1.45" shape-rendering="geometricPrecision" font-family="sans-serif" transform="matrix(1,0,0,1,-58,314)" stroke-linecap="butt">
      <text x="362.5928" xml:space="preserve" y="-196.2676" clip-path="url(#clipPath2)" stroke="none"> </text>
      <text x="313.0049" xml:space="preserve" y="-182.2988" clip-path="url(#clipPath2)" stroke="none">                           </text>
      <text x="341.6133" xml:space="preserve" y="-168.3301" clip-path="url(#clipPath2)" stroke="none">            </text>
      <text x="341.6133" xml:space="preserve" y="-154.3613" clip-path="url(#clipPath2)" stroke="none">            </text>
      <text x="341.6133" xml:space="preserve" y="-140.3926" clip-path="url(#clipPath2)" stroke="none">            </text>
      <text x="341.6133" xml:space="preserve" y="-126.4238" clip-path="url(#clipPath2)" stroke="none">            </text>
      <rect x="73.5" y="-263" clip-path="url(#clipPath2)" fill="none" width="582" rx="4" ry="4" height="195" stroke-width="2"/>
    </g>
    <g stroke-linecap="butt" transform="matrix(1,0,0,1,-58,314) translate(486,-247)" text-rendering="geometricPrecision" font-family="sans-serif" shape-rendering="geometricPrecision" font-weight="bold" stroke-miterlimit="1.45">
      <text x="0" xml:space="preserve" y="12" clip-path="url(#clipPath3)" stroke="none">clases de la Librería</text>
    </g>
    <g stroke-linecap="butt" transform="matrix(1,0,0,1,-58,314) translate(158,-247)" text-rendering="geometricPrecision" font-family="sans-serif" shape-rendering="geometricPrecision" font-weight="bold" stroke-miterlimit="1.45">
      <text x="0" xml:space="preserve" y="12" clip-path="url(#clipPath4)" stroke="none">clases de mi Aplicación</text>
    </g>
    <g stroke-linecap="butt" transform="matrix(1,0,0,1,-58,314) translate(104,-199)" text-rendering="geometricPrecision" font-family="sans-serif" shape-rendering="geometricPrecision" font-weight="bold" stroke-miterlimit="1.45">
      <text x="0" xml:space="preserve" y="12" clip-path="url(#clipPath5)" stroke="none">Main</text>
    </g>
    <g text-rendering="geometricPrecision" stroke-miterlimit="1.45" stroke-width="2" shape-rendering="geometricPrecision" transform="matrix(1,0,0,1,-58,314)" stroke-linecap="butt">
      <rect fill="none" x="82" width="78" height="49" y="-216.5" clip-path="url(#clipPath2)"/>
      <text x="228.207" y="-187.8457" clip-path="url(#clipPath2)" font-family="sans-serif" stroke="none" stroke-width="1" xml:space="preserve">Foo</text>
      <rect fill="none" x="200" width="78" height="49" y="-216.5" clip-path="url(#clipPath2)"/>
      <text x="224.0967" y="-97.3457" clip-path="url(#clipPath2)" font-family="sans-serif" stroke="none" stroke-width="1" xml:space="preserve">XFoo</text>
      <rect fill="none" x="200" width="78" height="49" y="-126" clip-path="url(#clipPath2)"/>
      <text x="336.7402" y="-187.8457" clip-path="url(#clipPath2)" font-family="sans-serif" stroke="none" stroke-width="1" xml:space="preserve">Bar</text>
      <rect fill="none" x="308" width="78" height="49" y="-216.5" clip-path="url(#clipPath2)"/>
      <text x="486.9219" y="-187.3457" clip-path="url(#clipPath2)" font-family="sans-serif" stroke="none" stroke-width="1" xml:space="preserve">LibBar</text>
      <rect x="467" y="-216" clip-path="url(#clipPath2)" fill="none" width="78" height="49" stroke-width="1"/>
      <text x="587.3887" y="-187.3457" clip-path="url(#clipPath2)" font-family="sans-serif" stroke="none" stroke-width="1" xml:space="preserve">LibFoo</text>
      <rect x="568" y="-216" clip-path="url(#clipPath2)" fill="none" width="78" height="49" stroke-width="1"/>
      <text x="482.8115" y="-97.3457" clip-path="url(#clipPath2)" font-family="sans-serif" stroke="none" stroke-width="1" xml:space="preserve">LibXBar</text>
      <rect x="467" y="-126" clip-path="url(#clipPath2)" fill="none" width="78" height="49" stroke-width="1"/>
    </g>
    <g stroke-linecap="butt" transform="matrix(1,0,0,1,-58,314) translate(332,-291)" text-rendering="geometricPrecision" font-family="sans-serif" shape-rendering="geometricPrecision" font-weight="bold" stroke-miterlimit="1.45">
      <text x="0" xml:space="preserve" y="12" clip-path="url(#clipPath6)" stroke="none">Mi Aplicación</text>
    </g>
    <g text-rendering="geometricPrecision" stroke-miterlimit="1.45" shape-rendering="geometricPrecision" transform="matrix(1,0,0,1,-58,314)" stroke-linecap="butt">
      <path fill="none" d="M160 -192 L192 -192" clip-path="url(#clipPath2)"/>
      <path d="M200 -192 L188 -197 L191 -192 L188 -187 Z" clip-path="url(#clipPath2)" stroke="none"/>
      <path fill="none" d="M239 -126 L239 -152.5" clip-path="url(#clipPath2)"/>
      <path fill="white" d="M239 -167.5 L233 -151.5 L245 -151.5 Z" clip-path="url(#clipPath2)" stroke="none"/>
      <path fill="none" d="M239 -167.5 L233 -151.5 L245 -151.5 Z" clip-path="url(#clipPath2)"/>
      <path fill="none" d="M278 -192 L300 -192" clip-path="url(#clipPath2)"/>
      <path d="M308 -192 L296 -197 L299 -192 L296 -187 Z" clip-path="url(#clipPath2)" stroke="none"/>
      <path fill="none" d="M386 -191.8774 L459 -191.6478" clip-path="url(#clipPath2)"/>
      <path d="M467 -191.6226 L455.0158 -196.6604 L458 -191.6509 L454.9843 -186.6604 Z" clip-path="url(#clipPath2)" stroke="none"/>
      <path fill="none" d="M545 -191.5 L560 -191.5" clip-path="url(#clipPath2)"/>
      <path d="M568 -191.5 L556 -196.5 L559 -191.5 L556 -186.5 Z" clip-path="url(#clipPath2)" stroke="none"/>
      <path fill="none" d="M506 -126 L506 -152" clip-path="url(#clipPath2)"/>
      <path fill="white" d="M506 -167 L500 -151 L512 -151 Z" clip-path="url(#clipPath2)" stroke="none"/>
      <path fill="none" d="M506 -167 L500 -151 L512 -151 Z" clip-path="url(#clipPath2)"/>
    </g>
  </g>
</svg>
