<?xml version="1.0" encoding="UTF-8"?><svg xmlns="http://www.w3.org/2000/svg" xmlns:xlink="http://www.w3.org/1999/xlink" fill-opacity="1" color-rendering="auto" color-interpolation="auto" text-rendering="auto" stroke="black" stroke-linecap="square" width="594" stroke-miterlimit="10" shape-rendering="auto" stroke-opacity="1" fill="black" stroke-dasharray="none" font-weight="normal" stroke-width="1" height="314" font-family="'Dialog'" font-style="normal" stroke-linejoin="miter" font-size="12px" stroke-dashoffset="0" image-rendering="auto">
  <!--Generated by ySVG 2.5-->
  <defs id="genericDefs"/>
  <g>
    <defs id="defs1">
      <clipPath clipPathUnits="userSpaceOnUse" id="clipPath1">
        <path d="M0 0 L594 0 L594 314 L0 314 L0 0 Z"/>
      </clipPath>
      <clipPath clipPathUnits="userSpaceOnUse" id="clipPath2">
        <path d="M130 17 L724 17 L724 331 L130 331 L130 17 Z"/>
      </clipPath>
      <clipPath clipPathUnits="userSpaceOnUse" id="clipPath3">
        <path d="M0 0 L0 53 L100 53 L100 0 Z"/>
      </clipPath>
      <clipPath clipPathUnits="userSpaceOnUse" id="clipPath4">
        <path d="M0 0 L0 68 L50 68 L50 0 Z"/>
      </clipPath>
      <clipPath clipPathUnits="userSpaceOnUse" id="clipPath5">
        <path d="M0 0 L0 53 L37 53 L37 0 Z"/>
      </clipPath>
      <clipPath clipPathUnits="userSpaceOnUse" id="clipPath6">
        <path d="M0 0 L0 53 L78 53 L78 0 Z"/>
      </clipPath>
      <clipPath clipPathUnits="userSpaceOnUse" id="clipPath7">
        <path d="M0 0 L0 15 L91 15 L91 0 Z"/>
      </clipPath>
    </defs>
    <g fill="white" text-rendering="geometricPrecision" shape-rendering="geometricPrecision" transform="translate(-130,-17)" stroke="white">
      <rect x="130" width="594" height="314" y="17" clip-path="url(#clipPath2)" stroke="none"/>
    </g>
    <g stroke-linecap="butt" transform="matrix(1,0,0,1,-130,-17) translate(585,151)" text-rendering="geometricPrecision" font-family="sans-serif" shape-rendering="geometricPrecision" font-weight="bold" stroke-miterlimit="1.45">
      <text x="0" xml:space="preserve" y="12" clip-path="url(#clipPath3)" stroke="none">MyApplication</text>
      <line clip-path="url(#clipPath3)" fill="none" x1="99" x2="99" y1="18" y2="19" stroke="white"/>
      <line clip-path="url(#clipPath3)" fill="none" x1="0" x2="99" y1="19" y2="19" stroke="white"/>
      <line clip-path="url(#clipPath3)" fill="none" x1="0" x2="99" y1="18" y2="18" stroke="rgb(64,64,64)"/>
      <line clip-path="url(#clipPath3)" fill="none" x1="0" x2="0" y1="18" y2="19" stroke="rgb(64,64,64)"/>
      <text x="0" xml:space="preserve" y="35" clip-path="url(#clipPath3)" font-weight="normal" stroke="none"> </text>
      <text x="0" y="50" clip-path="url(#clipPath3)" font-style="italic" stroke="none" font-weight="normal" xml:space="preserve">text</text>
      <text x="25" xml:space="preserve" y="50" clip-path="url(#clipPath3)" font-weight="normal" stroke="none">()</text>
    </g>
    <g text-rendering="geometricPrecision" stroke-miterlimit="1.45" stroke-width="2" shape-rendering="geometricPrecision" transform="matrix(1,0,0,1,-130,-17)" stroke-linecap="butt">
      <rect fill="none" x="580.5" width="110" height="74" y="141.25" clip-path="url(#clipPath2)"/>
    </g>
    <g text-rendering="geometricPrecision" stroke-miterlimit="1.45" shape-rendering="geometricPrecision" font-family="sans-serif" transform="matrix(1,0,0,1,-130,-17)" stroke-linecap="butt">
      <text x="425.0928" xml:space="preserve" y="158.2324" clip-path="url(#clipPath2)" stroke="none"> </text>
      <text x="375.5049" xml:space="preserve" y="172.2012" clip-path="url(#clipPath2)" stroke="none">                           </text>
      <text x="404.1133" xml:space="preserve" y="186.1699" clip-path="url(#clipPath2)" stroke="none">            </text>
      <text x="404.1133" xml:space="preserve" y="200.1387" clip-path="url(#clipPath2)" stroke="none">            </text>
      <text x="404.1133" xml:space="preserve" y="214.1074" clip-path="url(#clipPath2)" stroke="none">            </text>
      <text x="404.1133" xml:space="preserve" y="228.0762" clip-path="url(#clipPath2)" stroke="none">            </text>
      <rect x="145.5" y="62.5" clip-path="url(#clipPath2)" fill="none" width="563" rx="4" ry="4" height="253" stroke-width="2"/>
    </g>
    <g stroke-linecap="butt" transform="matrix(1,0,0,1,-130,-17) translate(347,79)" text-rendering="geometricPrecision" font-family="sans-serif" shape-rendering="geometricPrecision" font-weight="bold" stroke-miterlimit="1.45">
      <text x="0" xml:space="preserve" y="12" clip-path="url(#clipPath4)" stroke="none">Screen</text>
      <line clip-path="url(#clipPath4)" fill="none" x1="49" x2="49" y1="18" y2="19" stroke="white"/>
      <line clip-path="url(#clipPath4)" fill="none" x1="0" x2="49" y1="19" y2="19" stroke="white"/>
      <line clip-path="url(#clipPath4)" fill="none" x1="0" x2="49" y1="18" y2="18" stroke="rgb(64,64,64)"/>
      <line clip-path="url(#clipPath4)" fill="none" x1="0" x2="0" y1="18" y2="19" stroke="rgb(64,64,64)"/>
      <text x="0" xml:space="preserve" y="35" clip-path="url(#clipPath4)" font-weight="normal" stroke="none"> </text>
      <text x="0" y="50" clip-path="url(#clipPath4)" font-style="italic" stroke="none" font-weight="normal" xml:space="preserve">print</text>
      <text x="29" xml:space="preserve" y="50" clip-path="url(#clipPath4)" font-weight="normal" stroke="none">()</text>
      <text x="39" xml:space="preserve" y="50" clip-path="url(#clipPath4)" font-weight="normal" stroke="none"> </text>
      <text x="0" y="65" clip-path="url(#clipPath4)" font-style="italic" stroke="none" font-weight="normal" xml:space="preserve">text</text>
      <text x="25" xml:space="preserve" y="65" clip-path="url(#clipPath4)" font-weight="normal" stroke="none">()</text>
    </g>
    <g text-rendering="geometricPrecision" stroke-miterlimit="1.45" shape-rendering="geometricPrecision" transform="matrix(1,0,0,1,-130,-17)" stroke-linecap="butt">
      <rect fill="none" x="317.5" width="110" height="74" y="76" clip-path="url(#clipPath2)"/>
    </g>
    <g stroke-linecap="butt" transform="matrix(1,0,0,1,-130,-17) translate(202,86)" text-rendering="geometricPrecision" font-family="sans-serif" shape-rendering="geometricPrecision" font-weight="bold" stroke-miterlimit="1.45">
      <text x="0" xml:space="preserve" y="12" clip-path="url(#clipPath5)" stroke="none">Start</text>
      <line clip-path="url(#clipPath5)" fill="none" x1="36" x2="36" y1="18" y2="19" stroke="white"/>
      <line clip-path="url(#clipPath5)" fill="none" x1="0" x2="36" y1="19" y2="19" stroke="white"/>
      <line clip-path="url(#clipPath5)" fill="none" x1="0" x2="36" y1="18" y2="18" stroke="rgb(64,64,64)"/>
      <line clip-path="url(#clipPath5)" fill="none" x1="0" x2="0" y1="18" y2="19" stroke="rgb(64,64,64)"/>
      <text x="0" xml:space="preserve" y="35" clip-path="url(#clipPath5)" font-weight="normal" stroke="none"> </text>
      <text x="0" y="50" clip-path="url(#clipPath5)" font-style="italic" stroke="none" font-weight="normal" xml:space="preserve">init</text>
      <text x="19" xml:space="preserve" y="50" clip-path="url(#clipPath5)" font-weight="normal" stroke="none">()</text>
    </g>
    <g text-rendering="geometricPrecision" stroke-miterlimit="1.45" shape-rendering="geometricPrecision" transform="matrix(1,0,0,1,-130,-17)" stroke-linecap="butt">
      <rect fill="none" x="165.5" width="110" height="74" y="76" clip-path="url(#clipPath2)"/>
    </g>
    <g stroke-linecap="butt" transform="matrix(1,0,0,1,-130,-17) translate(596,243)" text-rendering="geometricPrecision" font-family="sans-serif" shape-rendering="geometricPrecision" font-weight="bold" stroke-miterlimit="1.45">
      <text x="0" xml:space="preserve" y="12" clip-path="url(#clipPath6)" stroke="none">Main</text>
      <line clip-path="url(#clipPath6)" fill="none" x1="77" x2="77" y1="18" y2="19" stroke="white"/>
      <line clip-path="url(#clipPath6)" fill="none" x1="0" x2="77" y1="19" y2="19" stroke="white"/>
      <line clip-path="url(#clipPath6)" fill="none" x1="0" x2="77" y1="18" y2="18" stroke="rgb(64,64,64)"/>
      <line clip-path="url(#clipPath6)" fill="none" x1="0" x2="0" y1="18" y2="19" stroke="rgb(64,64,64)"/>
      <text x="0" xml:space="preserve" y="35" clip-path="url(#clipPath6)" font-weight="normal" stroke="none"> </text>
      <text x="0" y="50" clip-path="url(#clipPath6)" font-style="italic" stroke="none" font-weight="normal" xml:space="preserve">main</text>
      <text x="30" xml:space="preserve" y="50" clip-path="url(#clipPath6)" font-weight="normal" stroke="none">(args[])</text>
    </g>
    <g text-rendering="geometricPrecision" stroke-miterlimit="1.45" stroke-width="2" shape-rendering="geometricPrecision" transform="matrix(1,0,0,1,-130,-17)" stroke-linecap="butt">
      <rect fill="none" x="580.5" width="110" height="74" y="232.5" clip-path="url(#clipPath2)"/>
    </g>
    <g stroke-linecap="butt" transform="matrix(1,0,0,1,-130,-17) translate(377,40)" text-rendering="geometricPrecision" font-family="sans-serif" shape-rendering="geometricPrecision" font-weight="bold" stroke-miterlimit="1.45">
      <text x="0" xml:space="preserve" y="12" clip-path="url(#clipPath7)" stroke="none">Mi Aplicación</text>
    </g>
    <g text-rendering="geometricPrecision" stroke-miterlimit="1.45" shape-rendering="geometricPrecision" transform="matrix(1,0,0,1,-130,-17)" stroke-linecap="butt">
      <path fill="none" d="M580.5 178.25 L367 178.25 L367 165.0096" clip-path="url(#clipPath2)"/>
      <path fill="white" d="M367 150.0096 L361 166.0096 L373 166.0096 Z" clip-path="url(#clipPath2)" stroke="none"/>
      <path fill="none" d="M367 150.0096 L361 166.0096 L373 166.0096 Z" clip-path="url(#clipPath2)"/>
      <path fill="none" stroke-dasharray="6,2" d="M427.5 113 L635.5 113 L635.5 133.25" clip-path="url(#clipPath2)"/>
      <path stroke-dasharray="6,2" d="M635.5 141.25 L640.5 129.25 L635.5 132.25 L630.5 129.25 Z" clip-path="url(#clipPath2)" stroke="none"/>
      <path fill="none" d="M275.5 113 L309.5 113" clip-path="url(#clipPath2)"/>
      <path d="M317.5 113 L305.5 108 L308.5 113 L305.5 118 Z" clip-path="url(#clipPath2)" stroke="none"/>
      <path fill="none" d="M580.5 269.5 L220.5 269.5 L220.5 158" clip-path="url(#clipPath2)"/>
      <path d="M220.5 150 L215.5 162 L220.5 159 L225.5 162 Z" clip-path="url(#clipPath2)" stroke="none"/>
    </g>
  </g>
</svg>
